<svg width="75" height="63" viewBox="0 0 75 63" fill="none" xmlns="http://www.w3.org/2000/svg">
<path d="M0 62.1951V55.1682H75V62.1951H0ZM10.9195 51.8056C8.80848 51.8056 7.00951 51.0599 5.52262 49.5686C4.03573 48.0773 3.29228 46.273 3.29228 44.1557V7.64987C3.29228 5.53257 4.03573 3.72826 5.52262 2.23696C7.00951 0.745651 8.80848 0 10.9195 0H64.0805C66.1915 0 67.9905 0.745651 69.4774 2.23696C70.9643 3.72826 71.7077 5.53257 71.7077 7.64987V44.1557C71.7077 46.273 70.9643 48.0773 69.4774 49.5686C67.9905 51.0599 66.1915 51.8056 64.0805 51.8056H10.9195ZM10.9195 44.1557H64.0805V7.64987H10.9195V44.1557Z" fill="white"/>
</svg>
